<?xml version="1.0" encoding="UTF-8"?>
<svg xmlns="http://www.w3.org/2000/svg" width="1254" height="1254" viewBox="0 0 1254 1254" role="img" aria-labelledby="title desc">
<title id="title">Stylized eagle emblem</title>
<desc id="desc">High-contrast vector trace of a geometric eagle emblem.</desc>
<path d="M168 98L168 151L171 172L180 201L188 217L202 235L200 236L174 220L172 221L173 247L177 272L183 292L195 317L210 337L224 350L221 351L198 342L192 341L194 353L205 386L212 401L224 420L241 439L267 458L259 459L253 457L235 455L245 478L261 505L268 514L289 534L309 547L325 555L320 557L307 556L289 557L293 564L312 589L328 605L348 619L364 627L388 635L386 637L362 642L365 647L387 666L405 678L426 688L440 692L456 693L457 694L455 696L446 700L442 704L459 715L477 724L494 730L504 732L518 732L524 730L525 731L520 737L521 739L551 749L575 751L590 749L600 746L613 753L600 760L537 786L236 906L235 908L264 938L277 949L300 965L316 974L310 979L310 981L338 1003L357 1015L386 1028L388 1030L384 1035L386 1039L429 1064L451 1073L458 1074L459 1075L457 1081L496 1097L527 1106L533 1103L534 1104L533 1109L537 1111L585 1120L606 1121L609 1119L610 1122L615 1123L664 1122L681 1120L686 1117L688 1118L700 1117L736 1108L778 1092L806 1078L842 1055L812 927L812 922L849 919L870 914L871 920L864 935L856 943L845 950L857 952L873 949L886 943L895 937L896 939L886 953L895 953L903 951L919 944L934 933L949 917L951 918L949 932L961 926L976 911L988 891L994 871L994 847L991 836L1023 803L1044 776L1057 756L1077 719L1088 693L1097 666L1106 628L1111 588L1111 538L1108 510L1100 472L1089 438L1071 399L1051 367L1034 345L1007 317L973 290L947 274L920 261L890 250L867 244L822 238L781 239L753 243L735 247L704 257L683 266L659 279L549 155L494 87L492 93L488 136L489 155L496 185L508 211L506 212L474 181L472 200L473 228L477 247L484 264L482 265L472 255L470 255L470 264L474 286L484 309L483 311L211 138L193 124ZM788 903L791 905L795 916L827 1047L827 1050L825 1052L815 1052L807 1054L799 1058L789 1066L787 1059L783 960L780 928L780 906L782 904ZM750 894L752 898L753 912L755 1089L752 1090L741 1086L731 1086L723 1088L709 1095L708 1094L712 1066L716 1047L724 987L738 903L742 895ZM715 884L716 890L712 919L676 1105L675 1106L667 1101L655 1097L639 1099L628 1104L627 1101L647 1042L698 900L706 884L708 885ZM684 865L685 872L674 905L626 1029L600 1101L597 1103L588 1096L574 1091L561 1092L550 1095L549 1093L658 892L673 868L677 864ZM667 834L665 840L649 870L525 1081L523 1083L511 1073L494 1068L476 1068L475 1066L642 848L659 829ZM768 806L773 804L800 804L897 799L923 800L944 805L959 813L968 820L975 828L982 840L986 855L986 868L982 885L974 901L966 911L965 908L969 894L970 877L965 857L958 845L945 832L928 823L913 819L887 818L886 819L900 823L917 831L929 840L941 854L946 864L949 877L948 894L940 914L925 931L915 938L907 941L906 940L914 931L923 914L926 902L926 885L923 874L917 863L908 853L893 843L875 836L858 832L815 827L790 821L775 813ZM664 790L657 803L634 832L455 1048L453 1048L449 1043L437 1037L421 1032L408 1031L405 1029L453 981L630 811L658 787L661 787ZM596 780L578 793L519 829L323 940L319 939L303 929L279 917L261 910L273 904L554 791L588 779ZM663 760L652 772L599 820L391 999L388 1000L381 994L361 985L331 976L338 970L384 941L498 865L637 769L654 759L661 758ZM781 657L796 656L802 659L804 667L804 674L802 681L796 690L787 694L767 708L751 724L744 734L738 746L734 761L734 778L736 787L740 797L748 808L759 818L772 826L796 835L810 838L844 840L865 844L880 851L893 862L899 870L905 885L904 907L896 923L881 937L870 942L869 940L876 933L882 922L884 915L885 901L879 883L868 871L859 866L846 862L799 861L775 857L759 852L736 839L722 826L712 812L705 797L701 779L701 756L704 741L712 720L728 696L749 675L763 665ZM772 634L742 656L712 686L679 723L669 728L652 733L635 735L624 734L671 693L724 653L749 637L758 633L769 631ZM751 616L606 725L597 729L587 731L575 731L560 728L541 727L548 721L600 690L714 627L740 615ZM847 673L839 702L825 727L799 755L770 779L759 793L755 787L752 777L753 756L758 747L768 737L794 717L804 706L816 685L820 669L820 651L817 639L812 628L805 618L798 611L781 600L766 596L751 596L731 602L671 637L522 710L506 709L464 697L472 692L635 632L703 609L713 601L685 604L614 626L455 670L446 670L432 666L389 645L392 643L560 614L592 610L655 599L719 592L760 579L781 578L800 583L812 589L823 598L835 613L842 628L846 642ZM319 568L320 567L346 567L347 568L384 568L385 569L628 576L706 580L707 582L692 585L593 595L435 608L389 610L372 605L358 598L341 587L321 571ZM262 472L267 471L339 486L427 506L515 524L524 527L562 534L617 547L692 562L701 565L706 565L727 570L730 572L729 573L706 572L590 561L502 550L457 546L334 530L313 521L298 510ZM216 364L219 363L519 475L581 497L733 555L749 563L746 564L720 558L618 531L438 480L283 434L266 425L249 410L235 393ZM839 359L840 360L828 366L821 371L809 383L795 404L788 420L782 444L781 453L782 482L780 483L759 469L761 441L770 412L781 392L799 372L808 366L823 360ZM886 358L896 371L909 378L914 379L925 379L933 377L938 378L940 396L925 400L913 406L899 419L900 420L909 414L921 410L929 411L913 426L908 434L903 449L904 468L907 478L915 493L926 507L962 544L978 567L986 584L991 603L992 638L986 666L973 696L960 716L945 731L944 730L956 706L965 672L966 632L964 618L956 591L946 572L930 550L905 522L893 506L884 491L877 475L872 452L872 436L877 416L884 403L887 400L885 399L877 403L868 412L862 422L857 443L859 463L866 485L875 502L886 518L922 561L938 589L943 602L948 624L949 664L947 677L939 704L928 727L920 739L903 757L890 767L874 777L852 786L851 784L883 751L900 726L913 696L919 667L919 636L917 623L910 600L904 587L889 563L872 543L855 518L845 497L837 466L836 456L837 438L842 418L849 403L856 393L864 385L887 372L884 370L873 370L854 379L846 386L834 402L825 423L821 445L822 471L826 489L832 506L840 522L839 524L805 498L799 470L799 447L802 429L807 413L812 402L825 383L838 371L854 362L871 358ZM964 357L982 361L995 367L1007 378L1011 385L1013 392L1012 415L1006 428L999 437L997 418L994 411L988 404L975 398L964 396L953 396L951 394L961 362ZM781 318L785 317L802 319L923 319L938 325L952 339L958 354L956 356L949 355L918 345L862 345L827 341L804 334L790 326ZM190 248L192 247L315 313L592 457L704 518L759 551L757 552L731 540L581 477L249 329L232 317L218 301L204 278ZM488 213L489 212L714 432L712 433L624 367L568 321L523 281L511 268L504 258L497 244ZM185 138L186 137L204 152L231 170L470 321L625 415L820 526L846 545L865 564L880 586L891 612L895 628L897 644L896 675L888 705L876 729L859 751L841 768L818 784L797 792L789 794L784 793L815 766L842 737L849 727L859 708L867 684L869 673L869 644L864 620L850 591L831 569L819 559L792 542L485 367L325 273L231 216L219 205L206 187L195 165ZM506 126L543 170L627 265L746 394L747 398L738 419L693 375L622 299L565 236L532 196L523 183L514 164L505 130Z" fill="#d4a24e" fill-rule="evenodd" clip-rule="evenodd"/>
</svg>